<svg width="512" height="512" viewBox="0 0 512 512" fill="none" xmlns="http://www.w3.org/2000/svg">
<rect width="512" height="512" rx="128" fill="url(#paint0_linear)"/>
<!-- Outer Q Ring -->
<path d="M256 100C169.84 100 100 169.84 100 256C100 342.16 169.84 412 256 412C288.5 412 318.5 402 343 385L390 440V370L412 350C422 322 428 290 428 256C428 169.84 358.16 100 256 100ZM256 362C197.46 362 150 314.54 150 256C150 197.46 197.46 150 256 150C314.54 150 362 197.46 362 256C362 314.54 314.54 362 256 362Z" fill="white"/>
<!-- Lightning Bolt integrated as the 'tail' -->
<path d="M360 380L385 415H350L365 445L325 395H360L360 380Z" fill="white"/>
<!-- Trophy/Star in the center for 'Premium' feel -->
<path d="M256 190L272 230H315L280 255L292 295L256 270L220 295L232 255L197 230H240L256 190Z" fill="white" fill-opacity="0.95"/>
<defs>
<linearGradient id="paint0_linear" x1="0" y1="0" x2="512" y2="512" gradientUnits="userSpaceOnUse">
<stop stop-color="#6366F1"/>
<stop offset="1" stop-color="#A855F7"/>
</linearGradient>
</defs>
</svg>
